<?xml version="1.0" standalone="no"?>
<!DOCTYPE svg PUBLIC "-//W3C//DTD SVG 20010904//EN"
 "http://www.w3.org/TR/2001/REC-SVG-20010904/DTD/svg10.dtd">
<svg version="1.0" xmlns="http://www.w3.org/2000/svg"
 width="1024.000000pt" height="1024.000000pt" viewBox="0 0 1024.000000 1024.000000"
 preserveAspectRatio="xMidYMid meet">

<g transform="translate(0.000000,1024.000000) scale(0.100000,-0.100000)"
fill="#000000" stroke="none">
<path d="M6130 9179 c-148 -15 -381 -66 -535 -117 -268 -88 -495 -224 -687
-410 -178 -173 -312 -355 -417 -567 -31 -62 -47 -85 -61 -85 -33 0 -330 -89
-468 -141 -840 -314 -1463 -975 -1733 -1836 -42 -134 -100 -388 -121 -528 -21
-141 -17 -678 5 -825 52 -337 151 -641 313 -961 116 -229 230 -400 417 -624
l75 -89 5 -306 c5 -341 10 -379 75 -509 48 -98 118 -168 218 -218 76 -37 81
-38 183 -38 95 0 112 3 165 28 141 66 224 176 256 340 6 31 14 57 18 57 25 -1
35 -25 43 -106 29 -297 107 -642 175 -777 18 -35 21 -48 12 -51 -7 -3 -130
-10 -273 -16 -143 -7 -262 -14 -265 -17 -3 -2 32 -3 78 -1 45 1 82 1 82 -2 0
-3 -44 -11 -97 -18 -53 -7 -122 -18 -152 -26 -31 -7 -87 -19 -126 -26 -160
-28 -215 -52 -215 -96 0 -17 10 -26 43 -38 86 -31 166 -40 697 -72 337 -21
2012 -31 2365 -15 617 29 915 56 983 88 35 17 57 47 47 63 -12 20 -81 47 -170
68 -90 21 -121 27 -355 62 -118 18 -121 19 -40 13 84 -5 182 -5 188 1 7 7
-251 17 -295 11 -35 -5 -44 -4 -33 4 11 8 -9 11 -76 11 -132 0 -187 9 -180 29
3 9 23 68 45 131 54 155 106 424 136 707 5 46 11 62 24 66 14 3 20 -8 34 -65
31 -133 97 -236 189 -294 59 -37 151 -64 222 -64 217 0 391 151 458 399 19 67
22 111 26 381 l4 305 67 75 c313 348 550 797 666 1260 87 350 112 587 95 908
-30 586 -237 1160 -583 1620 l-70 93 19 24 c10 12 57 67 102 121 145 171 256
352 362 590 121 271 190 533 244 922 26 187 25 208 -18 272 -38 58 -79 72
-266 86 -91 7 -226 21 -300 30 -124 14 -209 29 -690 115 -91 16 -221 36 -290
45 -155 19 -493 26 -620 13z m639 -398 c73 -12 224 -39 335 -61 305 -60 535
-95 742 -115 l71 -7 -8 -41 c-4 -23 -17 -98 -30 -167 -73 -412 -238 -771 -481
-1041 -118 -132 -324 -299 -350 -283 -6 4 -8 3 -5 -3 8 -13 -120 -82 -208
-112 -65 -23 -77 -26 -55 -11 11 7 5 10 -22 10 -21 0 -38 -4 -38 -10 0 -5 10
-10 23 -10 20 -1 21 -1 4 -11 -10 -6 -27 -9 -38 -6 -10 3 -17 1 -14 -3 6 -9
-72 -26 -95 -21 -16 4 -633 17 -639 14 -2 -2 2 -10 9 -18 12 -14 10 -15 -16
-9 -16 4 -31 10 -34 14 -11 15 -50 31 -50 20 0 -5 6 -10 14 -10 8 0 17 -4 20
-9 3 -5 -12 -4 -34 1 -22 6 -37 14 -34 19 3 5 -2 6 -10 3 -9 -3 -23 2 -32 11
-9 9 -25 14 -35 12 -11 -3 -19 -2 -19 2 0 4 -14 8 -32 8 -18 0 -34 5 -36 11
-2 7 -10 12 -18 12 -8 0 -14 8 -15 18 0 15 -1 15 -7 1 -6 -15 -14 -14 -67 12
-33 15 -71 38 -83 49 -12 11 -22 18 -22 14 0 -4 -8 0 -17 8 -10 9 -28 19 -41
23 -27 8 -198 135 -262 194 l-45 41 210 -6 c333 -9 737 35 1050 116 277 72
601 225 753 355 100 86 109 205 22 278 -76 64 -140 67 -219 11 -214 -153 -370
-225 -638 -293 -79 -20 -366 -72 -371 -66 -2 1 28 25 65 53 109 81 327 311
364 384 64 125 -60 278 -193 239 -31 -9 -56 -28 -88 -64 -90 -103 -236 -250
-296 -297 -81 -65 -274 -182 -371 -224 -91 -40 -209 -79 -308 -102 -54 -12
-329 -64 -342 -64 -23 0 70 225 142 345 154 255 398 495 624 613 167 88 378
154 591 187 139 21 502 13 679 -14z m-2479 -1216 c0 -4 -8 -20 -17 -38 -10
-19 -17 -57 -17 -92 -1 -74 29 -132 87 -172 38 -26 46 -28 143 -27 56 1 114 4
127 8 22 5 32 -3 83 -67 98 -124 268 -283 403 -379 36 -25 77 -57 90 -70 13
-13 21 -17 16 -9 -5 9 1 7 19 -4 14 -10 26 -21 26 -26 0 -5 7 -5 17 -2 11 4
14 3 9 -6 -8 -13 10 -41 27 -41 6 0 2 7 -9 16 -18 15 -18 15 2 5 12 -6 24 -8
27 -5 5 6 67 -23 67 -32 0 -2 -13 2 -30 11 -38 20 -40 19 -40 -11 0 -23 3 -25
30 -19 19 4 30 3 30 -4 0 -6 -4 -11 -10 -11 -5 0 -10 -16 -10 -35 0 -28 -4
-35 -20 -35 -13 0 -20 7 -20 20 0 13 -7 20 -20 20 -17 0 -20 7 -20 40 l0 40
-80 0 c-74 0 -80 1 -80 21 0 16 -5 20 -22 17 -13 -2 -22 -9 -20 -16 1 -8 -2
-10 -9 -7 -8 5 -8 10 0 18 19 19 12 30 -14 25 -14 -3 -25 -1 -25 4 0 5 -5 6
-10 3 -6 -3 -14 5 -20 19 -11 31 -20 35 -13 6 3 -11 14 -27 25 -34 10 -7 40
-33 65 -57 29 -27 44 -36 39 -24 -9 24 3 13 19 -17 8 -16 19 -22 38 -21 18 1
27 -3 27 -13 0 -9 -5 -12 -12 -8 -7 4 -8 3 -4 -4 4 -6 14 -8 24 -5 9 3 14 3
10 -2 -17 -18 210 -166 348 -226 156 -68 416 -143 469 -135 24 3 34 36 11 36
-9 0 -16 -7 -16 -15 0 -8 -8 -15 -17 -14 -11 0 -13 3 -5 6 6 2 12 13 12 24 0
22 35 27 43 7 4 -9 8 -10 14 -2 4 6 33 10 63 10 53 0 53 0 25 -12 -17 -7 -38
-13 -47 -14 -9 0 -28 -11 -43 -24 -14 -13 -54 -40 -88 -60 -79 -46 -200 -152
-265 -231 -356 -434 -330 -1070 62 -1482 77 -82 175 -157 254 -197 45 -23 58
-25 89 -17 52 15 73 38 73 82 0 33 -10 49 -73 121 -83 95 -131 157 -125 164 3
2 20 -8 39 -22 52 -39 177 -100 259 -126 63 -19 96 -23 210 -23 114 0 147 4
210 23 239 75 396 238 462 479 17 62 21 106 21 213 0 119 -3 145 -27 217 -61
187 -226 359 -407 422 -151 54 -357 47 -508 -16 l-36 -15 57 -18 c31 -9 72
-27 91 -39 52 -32 116 -106 145 -169 23 -49 27 -70 27 -152 0 -85 -3 -102 -29
-155 -40 -82 -137 -177 -207 -203 -76 -28 -137 -34 -210 -23 -129 21 -228 94
-282 209 -29 62 -32 75 -32 167 1 89 4 108 31 171 100 232 303 397 565 459 49
12 113 18 189 17 341 -1 655 -197 800 -497 63 -132 81 -203 87 -360 11 -280
-68 -481 -275 -698 -48 -51 -121 -130 -162 -177 -91 -105 -107 -118 -184 -146
-72 -27 -60 -29 49 -9 119 23 181 43 270 87 263 131 442 364 527 685 20 78 23
109 22 278 -1 170 -4 200 -26 286 -38 139 -83 240 -159 354 -77 116 -213 252
-318 320 -71 46 -192 108 -232 118 -26 7 -18 23 16 31 14 4 55 20 91 36 35 17
66 30 69 30 9 0 201 114 243 144 43 30 44 30 59 11 31 -43 81 -134 122 -225
24 -52 58 -127 76 -166 50 -107 102 -261 125 -376 12 -57 25 -121 30 -143 4
-22 6 -43 4 -47 -3 -5 -2 -14 2 -20 5 -7 9 -33 10 -58 5 -121 18 -240 25 -240
5 0 6 -67 3 -152 -4 -84 -7 -168 -8 -185 0 -18 -5 -33 -9 -33 -4 0 -5 -17 -2
-37 l6 -38 -15 30 -15 30 5 -40 c3 -22 8 -48 11 -57 2 -10 -1 -18 -7 -18 -6 0
-9 -4 -6 -9 4 -5 2 -21 -4 -36 -7 -17 -7 -24 0 -20 6 3 10 2 10 -4 0 -5 -5
-13 -11 -16 -6 -4 -10 -19 -9 -33 4 -51 0 -72 -12 -69 -7 1 -14 -9 -15 -23 -2
-23 -2 -23 7 -5 11 22 12 27 -6 -68 -4 -26 -11 -37 -20 -33 -10 4 -11 0 -4
-19 7 -18 6 -24 -2 -22 -7 1 -13 -7 -15 -18 -3 -16 -2 -17 6 -5 7 9 11 10 11
3 0 -6 -7 -18 -15 -27 -8 -8 -15 -29 -15 -46 0 -25 -4 -31 -17 -28 -13 3 -17
12 -16 31 2 25 -1 27 -37 27 -33 0 -37 3 -33 19 3 11 -3 28 -14 40 -19 21 -19
21 -49 -40 -16 -34 -28 -71 -26 -83 2 -16 1 -18 -6 -7 -8 11 -12 10 -21 -7
-13 -25 -14 -43 -1 -22 14 23 185 28 193 6 4 -9 2 -16 -3 -16 -6 0 -10 -15
-10 -34 0 -19 -7 -41 -15 -49 -8 -8 -11 -17 -8 -21 4 -3 1 -6 -6 -6 -6 0 -11
-6 -9 -12 3 -20 -12 -58 -23 -58 -6 0 -8 -4 -5 -8 3 -5 -6 -15 -19 -22 -27
-14 -31 -25 -15 -35 6 -4 4 -12 -5 -21 -8 -9 -15 -24 -15 -35 0 -10 -4 -19 -9
-19 -5 0 -7 9 -4 20 3 11 0 20 -6 20 -6 0 -11 11 -11 25 0 14 5 25 10 25 6 0
10 7 10 15 0 8 -4 15 -10 15 -5 0 -10 24 -10 54 0 39 -4 55 -15 60 -8 3 -15
10 -15 16 0 6 4 8 10 5 11 -7 2 23 -13 43 -7 9 -13 9 -23 1 -8 -6 -14 -16 -14
-21 0 -5 -9 -19 -20 -30 -15 -17 -17 -24 -8 -30 19 -11 18 -47 -1 -45 -25 1
-73 -34 -67 -50 4 -8 1 -11 -5 -7 -8 4 -9 -1 -4 -15 5 -18 3 -22 -12 -19 -12
2 -18 -3 -17 -14 1 -10 -1 -16 -5 -13 -4 2 -16 -7 -26 -21 -10 -14 -29 -37
-42 -52 -57 -64 -82 -100 -75 -106 4 -4 2 -7 -3 -6 -22 5 -27 -1 -14 -17 10
-14 10 -16 0 -6 -10 9 -40 -16 -140 -117 -159 -161 -279 -259 -456 -375 -250
-163 -465 -259 -739 -329 -621 -160 -1234 -94 -1805 196 -354 179 -637 413
-892 738 -70 89 -90 117 -130 176 -9 13 -19 21 -24 16 -4 -4 -5 -2 -2 4 3 5
-3 23 -14 40 -40 59 -100 165 -145 256 -26 51 -51 96 -56 99 -5 3 -9 10 -8 15
0 5 -9 31 -22 57 -15 33 -24 43 -28 33 -4 -11 -9 -13 -20 -5 -11 8 -12 12 -2
16 16 6 15 33 -2 73 -9 21 -15 28 -19 19 -3 -8 -6 -1 -6 14 -1 16 -10 40 -21
54 -22 28 -26 53 -10 53 7 0 7 6 1 18 -6 11 -17 51 -26 90 -9 40 -21 74 -26
77 -5 4 -9 15 -9 26 0 10 -4 19 -10 19 -5 0 -7 13 -4 29 3 16 2 31 -3 34 -11
7 -11 6 -14 -83 -2 -45 -5 -57 -9 -40 -5 16 -7 3 -7 -38 0 -38 3 -58 8 -50 6
9 9 3 9 -17 0 -38 -18 -70 -19 -34 0 13 -6 76 -12 139 -18 171 3 604 35 760
151 718 597 1328 1236 1694 179 102 530 241 530 211z m1765 -695 c4 -6 -7 -10
-27 -9 -31 1 -32 1 -8 9 14 4 26 8 27 9 1 1 5 -3 8 -9z m78 3 c-7 -2 -19 -2
-25 0 -7 3 -2 5 12 5 14 0 19 -2 13 -5z m285 0 c-10 -2 -26 -2 -35 0 -10 3 -2
5 17 5 19 0 27 -2 18 -5z m107 -3 c-3 -5 -21 -9 -38 -9 l-32 2 35 7 c19 4 36
8 38 9 2 0 0 -3 -3 -9z m42 4 c-3 -3 -12 -4 -19 -1 -8 3 -5 6 6 6 11 1 17 -2
13 -5z m-159 -21 c-10 -2 -26 -2 -35 0 -10 3 -2 5 17 5 19 0 27 -2 18 -5z
m902 -201 c24 -31 37 -51 27 -43 -12 9 -17 10 -17 2 0 -6 7 -14 15 -17 8 -4
12 -10 9 -16 -3 -5 -14 -2 -24 7 -13 12 -26 14 -42 9 -33 -11 -149 -13 -142
-3 3 5 1 9 -5 9 -6 0 -8 7 -5 15 4 8 14 15 23 15 12 0 13 2 3 9 -10 6 -4 12
20 21 18 8 44 22 57 32 13 10 26 18 30 17 3 0 26 -26 51 -57z m-2092 -44 c-2
-6 -15 -15 -29 -20 -22 -7 -22 -7 -6 6 14 10 15 15 5 19 -7 3 -2 6 10 6 14 1
22 -4 20 -11z m1882 4 c0 -12 -44 -36 -62 -33 -10 1 -18 -3 -18 -8 0 -6 -7
-11 -15 -11 -8 0 -15 5 -15 10 0 6 6 10 13 10 7 0 28 9 47 19 39 22 50 25 50
13z m-1945 -12 c3 -5 1 -10 -4 -10 -6 0 -11 5 -11 10 0 6 2 10 4 10 3 0 8 -4
11 -10z m359 -32 c-3 -5 -12 -4 -20 3 -19 16 -18 18 6 12 11 -3 17 -9 14 -15z
m1786 1 c0 -5 -4 -9 -10 -9 -5 0 -10 7 -10 16 0 8 5 12 10 9 6 -3 10 -10 10
-16z m-180 1 c0 -5 -9 -10 -21 -10 -11 0 -17 5 -14 10 3 6 13 10 21 10 8 0 14
-4 14 -10z m258 -15 c-3 -3 -9 2 -12 12 -6 14 -5 15 5 6 7 -7 10 -15 7 -18z
m-420 -10 c-2 -6 -14 -9 -26 -7 -15 2 -21 -1 -17 -7 3 -6 33 -11 66 -11 52 0
59 -2 59 -20 0 -11 -4 -20 -10 -20 -5 0 -10 -6 -10 -13 0 -14 -35 -47 -50 -47
-6 0 -10 -4 -10 -10 0 -5 -9 -10 -20 -10 -13 0 -20 -7 -20 -19 0 -11 -4 -23
-10 -26 -5 -3 -10 -15 -10 -25 0 -10 -6 -21 -12 -23 -8 -4 -4 -8 10 -12 12 -4
22 -11 22 -15 0 -18 -33 -17 -136 1 -166 28 -346 24 -482 -12 -32 -9 -46 -9
-55 0 -6 6 -18 11 -26 10 -9 0 -5 -5 9 -11 l25 -10 -23 -11 c-18 -8 -26 -7
-40 6 -10 11 -12 17 -4 17 8 0 12 20 12 61 0 47 -4 65 -17 75 -10 7 -15 16
-11 20 4 3 76 10 160 15 84 4 184 13 222 19 84 13 244 46 269 55 13 5 17 2 17
-14 0 -25 6 -26 27 -5 13 12 14 18 3 24 -8 5 2 13 31 23 48 17 62 17 57 2z
m-1601 -80 c0 -8 -4 -15 -8 -15 -11 0 -20 16 -12 24 11 11 20 7 20 -9z m566
-2 c-7 -2 -21 -2 -30 0 -10 3 -4 5 12 5 17 0 24 -2 18 -5z m160 -20 c-7 -2
-21 -2 -30 0 -10 3 -4 5 12 5 17 0 24 -2 18 -5z m87 -143 c0 -11 -7 -20 -15
-20 -18 0 -19 6 -2 25 16 19 17 18 17 -5z m673 -1404 c67 -27 116 -118 103
-189 -33 -175 -288 -186 -336 -14 -21 75 29 177 100 206 36 14 96 13 133 -3z
m-4278 -92 c-6 -45 -35 -64 -35 -24 0 11 7 20 15 20 11 0 15 12 16 43 1 23 3
34 6 23 3 -10 2 -38 -2 -62z m-48 -146 c-3 -7 -5 -2 -5 12 0 14 2 19 5 13 2
-7 2 -19 0 -25z m34 -94 c5 -7 3 -11 -6 -11 -10 0 -15 10 -14 26 0 16 3 20 6
11 3 -8 10 -20 14 -26z m-4 -56 c-3 -7 -5 -2 -5 12 0 14 2 19 5 13 2 -7 2 -19
0 -25z m91 -103 c2 -98 0 -118 -15 -133 -15 -15 -16 -15 -11 -1 4 9 1 25 -7
35 -7 11 -15 36 -18 57 -4 34 -3 38 14 34 15 -4 19 0 19 19 0 27 -15 32 -24 9
-3 -8 -11 -15 -18 -14 -10 0 -10 2 0 6 6 2 12 11 12 19 0 9 -4 12 -10 9 -5 -3
-10 3 -10 15 0 12 -4 18 -10 15 -5 -3 -10 -1 -10 4 0 6 4 11 10 11 5 0 7 7 4
15 -5 12 2 15 33 15 l39 0 2 -115z m136 -71 c3 -8 2 -12 -4 -9 -6 3 -10 10
-10 16 0 14 7 11 14 -7z m4776 -79 c-7 -9 -15 -13 -17 -11 -7 7 7 26 19 26 6
0 6 -6 -2 -15z m-4890 -67 c0 -11 -5 -16 -11 -13 -6 4 -8 13 -5 21 3 8 2 14
-2 14 -4 0 -9 12 -10 28 l-2 27 15 -29 c8 -15 15 -37 15 -48z m4814 -89 c-17
-33 -30 -43 -39 -28 -4 5 0 16 10 22 9 7 18 21 20 32 2 11 4 22 4 25 1 3 5 -1
10 -9 6 -10 5 -25 -5 -42z m-4757 -34 c0 -17 -13 -20 -21 -6 -4 5 0 12 6 14 7
3 13 6 14 6 0 1 1 -6 1 -14z m3 -51 c0 -8 5 -14 10 -14 6 0 10 5 10 12 0 6 2
9 5 7 2 -3 2 -15 -2 -27 -5 -21 -6 -22 -18 -5 -17 26 -27 55 -15 48 6 -3 10
-13 10 -21z m35 -64 c3 -5 1 -10 -4 -10 -6 0 -11 5 -11 10 0 6 2 10 4 10 3 0
8 -4 11 -10z m4838 -5 c-3 -9 -8 -14 -10 -11 -3 3 -2 9 2 15 9 16 15 13 8 -4z
m-4794 -72 c-3 -21 2 -33 13 -27 7 5 8 3 3 -6 -6 -10 -11 -9 -21 5 -7 10 -11
22 -8 26 6 11 14 12 13 2z m4735 -48 c-4 -8 -8 -15 -10 -15 -2 0 -4 7 -4 15 0
8 4 15 10 15 5 0 7 -7 4 -15z m-4703 -19 c5 3 9 0 9 -6 0 -15 -23 -7 -26 8 -1
7 0 8 3 2 2 -5 9 -8 14 -4z m4671 -19 c-7 -8 -9 -17 -5 -20 3 -4 1 -7 -5 -7
-19 0 -23 18 -8 33 8 8 14 17 12 20 -2 2 2 1 7 -4 7 -5 6 -13 -1 -22z m-279
-4 c-5 -12 -3 -14 8 -8 8 5 11 4 6 0 -4 -5 -14 -10 -22 -11 -12 -2 -12 2 -5
17 13 23 22 25 13 2z m219 -107 c5 4 2 -5 -7 -20 -21 -32 -25 -33 -18 -3 4 18
3 19 -6 7 -6 -8 -11 -10 -11 -4 0 15 24 37 28 24 2 -5 8 -7 14 -4z m-382
-1018 c0 -16 -3 -19 -11 -11 -6 6 -8 16 -5 22 11 17 16 13 16 -11z m-57 -34
c3 -3 3 -13 0 -21 -5 -12 -7 -12 -14 -1 -15 23 -4 40 14 22z m44 -36 c-3 -7
-5 -2 -5 12 0 14 2 19 5 13 2 -7 2 -19 0 -25z m-83 -23 c-5 -11 1 -13 32 -8
l37 6 -7 -34 c-21 -90 -24 -117 -20 -153 4 -28 1 -42 -13 -53 -10 -8 -12 -12
-5 -8 17 9 15 2 -7 -24 -21 -24 -41 -28 -84 -17 -20 5 -27 11 -23 22 3 9 6 22
6 30 0 8 9 14 20 14 11 0 20 5 20 10 0 6 -4 10 -10 10 -5 0 -10 9 -10 19 0 11
-5 21 -12 23 -8 3 -9 11 -3 24 8 18 9 18 12 -3 5 -26 28 -30 49 -9 18 19 18
26 -1 26 -9 0 -27 11 -41 25 -36 36 -26 77 24 98 20 8 38 15 39 16 1 1 0 -6
-3 -14z m-3625 -64 c25 -15 69 -39 98 -52 29 -13 52 -31 53 -39 0 -13 1 -13
11 0 8 11 9 8 4 -15 -9 -48 -27 -85 -36 -79 -5 3 -6 -2 -3 -10 4 -10 -5 -20
-27 -31 -30 -16 -35 -16 -66 -1 -37 17 -66 70 -66 118 0 15 -3 25 -7 23 -7 -4
-20 65 -20 101 0 20 7 18 59 -15z m3494 -38 c-3 -7 -9 -13 -13 -13 -9 0 -20
47 -12 55 8 8 30 -28 25 -42z m-16 -45 c-3 -8 -6 -5 -6 6 -1 11 2 17 5 13 3
-3 4 -12 1 -19z m210 -20 c-3 -7 -5 -2 -5 12 0 14 2 19 5 13 2 -7 2 -19 0 -25z
m-170 -90 c-3 -7 -5 -2 -5 12 0 14 2 19 5 13 2 -7 2 -19 0 -25z m-777 -142 c0
-7 -3 -35 -7 -62 -6 -46 -7 -47 -14 -19 -6 19 -4 32 4 37 6 4 8 10 4 15 -11
11 -28 -18 -23 -39 2 -11 -2 -18 -10 -18 -8 0 -14 -6 -14 -14 0 -14 -21 -26
-46 -26 -9 0 -14 10 -14 28 1 24 2 25 13 10 8 -10 18 -13 26 -9 9 6 10 11 3
15 -6 4 -9 13 -5 21 3 8 0 16 -6 16 -6 1 -15 3 -21 4 -5 1 -19 3 -31 4 -27 1
-14 21 15 21 12 0 26 4 32 9 22 21 94 27 94 7z m-180 -42 c0 -2 -9 -4 -21 -4
-11 0 -18 4 -14 10 5 8 35 3 35 -6z m-115 -14 c-3 -5 -16 -10 -28 -9 -20 1
-20 2 3 9 14 4 26 8 28 9 2 1 0 -3 -3 -9z m-445 -84 c0 -53 40 -325 60 -411
10 -45 28 -104 39 -133 l21 -52 -291 0 c-273 0 -291 1 -284 18 48 114 82 261
104 452 7 52 14 110 17 127 l5 32 157 3 c86 2 160 2 165 0 4 -2 7 -18 7 -36z
m-942 -441 c-3 -3 -9 2 -12 12 -6 14 -5 15 5 6 7 -7 10 -15 7 -18z m97 -53
c-3 -3 -11 0 -18 7 -9 10 -8 11 6 5 10 -3 15 -9 12 -12z"/>
<path d="M3640 6283 c-76 -13 -226 -60 -297 -93 -123 -57 -217 -124 -319 -227
-127 -127 -225 -281 -279 -438 -58 -171 -81 -435 -51 -602 57 -326 258 -607
530 -740 102 -50 158 -68 270 -88 119 -20 133 -18 60 9 -33 12 -74 32 -91 44
-37 27 -281 302 -347 392 -163 222 -222 506 -159 770 18 75 86 227 132 294 87
126 206 226 352 296 128 61 222 83 359 83 145 0 223 -18 359 -84 91 -45 116
-63 190 -138 88 -89 134 -156 171 -250 l21 -54 -79 74 c-196 183 -445 275
-677 248 -87 -9 -204 -46 -188 -58 4 -4 31 -13 58 -20 107 -27 198 -104 249
-211 27 -57 30 -76 31 -155 0 -82 -3 -96 -33 -157 -37 -76 -114 -152 -189
-189 -42 -21 -62 -24 -163 -24 -107 0 -119 2 -169 28 -69 37 -139 108 -171
174 -14 29 -28 52 -31 53 -12 0 -18 -147 -8 -220 33 -264 212 -493 450 -576
60 -21 98 -27 204 -31 158 -6 260 14 394 79 47 23 90 44 95 46 14 7 -25 -45
-93 -123 -52 -59 -61 -76 -61 -108 0 -54 14 -75 62 -87 55 -15 105 4 206 80
225 168 379 429 427 720 39 243 4 483 -100 695 -113 230 -276 391 -509 501
-143 67 -270 94 -441 93 -77 -1 -151 -4 -165 -6z m646 -1398 c78 -46 109 -165
62 -235 -38 -55 -71 -74 -141 -78 -53 -3 -67 0 -97 20 -53 36 -80 83 -80 140
0 76 45 146 110 171 38 14 105 6 146 -18z"/>
<path d="M7741 5604 c0 -11 3 -14 6 -6 3 7 2 16 -1 19 -3 4 -6 -2 -5 -13z"/>
<path d="M7772 5460 c0 -14 2 -19 5 -12 2 6 2 18 0 25 -3 6 -5 1 -5 -13z"/>
<path d="M7751 4834 c0 -11 3 -14 6 -6 3 7 2 16 -1 19 -3 4 -6 -2 -5 -13z"/>
<path d="M7618 4445 c-15 -39 -15 -46 -3 -41 8 3 19 -3 25 -12 8 -14 11 -15
19 -3 7 11 10 10 14 -5 2 -10 5 2 6 29 1 40 -2 47 -18 47 -11 0 -21 7 -23 16
-2 9 -11 -5 -20 -31z m22 -15 c0 -5 -5 -10 -11 -10 -5 0 -7 5 -4 10 3 6 8 10
11 10 2 0 4 -4 4 -10z"/>
<path d="M7585 4370 c3 -5 8 -10 11 -10 2 0 4 5 4 10 0 6 -5 10 -11 10 -5 0
-7 -4 -4 -10z"/>
<path d="M4736 4200 c-133 -40 -141 -226 -14 -383 127 -158 271 -224 472 -215
223 10 395 121 487 314 42 86 47 147 17 203 -32 63 -68 86 -129 85 -64 -1
-110 -37 -153 -120 -50 -95 -73 -121 -132 -150 -47 -23 -63 -26 -122 -22 -91
7 -141 34 -191 105 -23 31 -41 62 -41 68 0 27 -60 93 -99 109 -46 18 -53 18
-95 6z"/>
<path d="M7386 4035 c-17 -25 -16 -25 4 -13 11 7 20 18 20 25 0 19 -6 16 -24
-12z"/>
<path d="M7615 4029 c-4 -6 -5 -12 -2 -15 2 -3 7 2 10 11 7 17 1 20 -8 4z"/>
<path d="M6920 6489 c0 -11 5 -17 10 -14 6 3 10 13 10 21 0 8 -4 14 -10 14 -5
0 -10 -9 -10 -21z"/>
<path d="M6860 6340 c0 -11 5 -20 10 -20 6 0 10 9 10 20 0 11 -4 20 -10 20 -5
0 -10 -9 -10 -20z"/>
<path d="M2605 4331 c-3 -5 -1 -12 5 -16 5 -3 10 1 10 9 0 18 -6 21 -15 7z"/>
<path d="M6977 2460 c-3 -11 -2 -20 3 -20 4 0 10 9 13 20 3 11 2 20 -3 20 -4
0 -10 -9 -13 -20z"/>
<path d="M3373 1373 c9 -2 23 -2 30 0 6 3 -1 5 -18 5 -16 0 -22 -2 -12 -5z"/>
<path d="M3473 1373 c9 -2 25 -2 35 0 9 3 1 5 -18 5 -19 0 -27 -2 -17 -5z"/>
<path d="M6908 1373 c17 -2 47 -2 65 0 17 2 3 4 -33 4 -36 0 -50 -2 -32 -4z"/>
<path d="M7043 1363 c9 -2 25 -2 35 0 9 3 1 5 -18 5 -19 0 -27 -2 -17 -5z"/>
<path d="M7178 1353 c12 -2 32 -2 45 0 12 2 2 4 -23 4 -25 0 -35 -2 -22 -4z"/>
<path d="M2988 1343 c6 -2 18 -2 25 0 6 3 1 5 -13 5 -14 0 -19 -2 -12 -5z"/>
<path d="M7303 1343 c9 -2 23 -2 30 0 6 3 -1 5 -18 5 -16 0 -22 -2 -12 -5z"/>
<path d="M2903 1333 c9 -2 25 -2 35 0 9 3 1 5 -18 5 -19 0 -27 -2 -17 -5z"/>
<path d="M7373 1333 c9 -2 23 -2 30 0 6 3 -1 5 -18 5 -16 0 -22 -2 -12 -5z"/>
<path d="M2823 1323 c9 -2 23 -2 30 0 6 3 -1 5 -18 5 -16 0 -22 -2 -12 -5z"/>
<path d="M7618 1303 c7 -3 16 -2 19 1 4 3 -2 6 -13 5 -11 0 -14 -3 -6 -6z"/>
<path d="M2334 1214 c-18 -14 -18 -15 4 -4 12 6 22 13 22 15 0 8 -5 6 -26 -11z"/>
<path d="M7710 1070 c-11 -7 -5 -8 20 -4 43 8 51 14 19 14 -13 0 -31 -5 -39
-10z"/>
<path d="M7575 1050 c-42 -11 -1 -11 50 -1 34 7 35 9 10 9 -16 0 -43 -4 -60
-8z"/>
<path d="M7488 1033 c7 -3 16 -2 19 1 4 3 -2 6 -13 5 -11 0 -14 -3 -6 -6z"/>
<path d="M7398 1023 c7 -3 16 -2 19 1 4 3 -2 6 -13 5 -11 0 -14 -3 -6 -6z"/>
<path d="M7318 1013 c7 -3 16 -2 19 1 4 3 -2 6 -13 5 -11 0 -14 -3 -6 -6z"/>
<path d="M3088 1003 c6 -2 18 -2 25 0 6 3 1 5 -13 5 -14 0 -19 -2 -12 -5z"/>
<path d="M7108 993 c6 -2 18 -2 25 0 6 3 1 5 -13 5 -14 0 -19 -2 -12 -5z"/>
<path d="M6978 983 c12 -2 32 -2 45 0 12 2 2 4 -23 4 -25 0 -35 -2 -22 -4z"/>
<path d="M3488 973 c6 -2 18 -2 25 0 6 3 1 5 -13 5 -14 0 -19 -2 -12 -5z"/>
<path d="M6698 963 c12 -2 32 -2 45 0 12 2 2 4 -23 4 -25 0 -35 -2 -22 -4z"/>
</g>
</svg>
